<?xml version="1.0" encoding="UTF-8" standalone="no"?>
<svg
   xmlns:dc="http://purl.org/dc/elements/1.1/"
   xmlns:cc="http://creativecommons.org/ns#"
   xmlns:rdf="http://www.w3.org/1999/02/22-rdf-syntax-ns#"
   xmlns:svg="http://www.w3.org/2000/svg"
   xmlns="http://www.w3.org/2000/svg"
   version="1.1"
   id="logo"
   viewBox="0 0 100 100">
  <defs>
    <style>
      path#dc-logo {
        fill:#c95300;fill-opacity:1;fill-rule:evenodd;stroke:#000000;stroke-width:1.4;stroke-linecap:square;stroke-linejoin:miter;stroke-miterlimit:4;stroke-dasharray:none;stroke-opacity:1;

        /* My styles */
        stroke-dasharray : 520;
        stroke-dashoffset : 0;
        -webkit-animation : dash 2s linear forwards, fill 2s linear forwards;
        -o-animation : dash 2s linear forwards, fill 2s linear forwards;
        -mox-animation : dash 2s linear forwards, fill 2s linear forwards;
        animation : dash 2s linear forwards, fill 2s linear forwards;
        animation-delay : 0s, 2s;
        -moz-animation-delay : 0s, 2s;
        -o-animation-delay : 0s, 2s;
        -webkit-animation-delay : 0s, 2s;
        stroke:#000;
        fill: #f00;
        fill-opacity: 0;
        transition: fill 1s ease-in;
      }

      #dc-logo:hover {
        fill: #FF5252;
        transition : all 1s ease-out;
        cursor: pointer;
      }

      @-webkit-keyframes dash {
        from {
          stroke-dashoffset : 520;
        }
        to {
          stroke-dashoffset : 0;
        }
      }
      @-webkit-keyframes fill {
        from {
          fill-opacity : 0;
        }
        to {
          fill-opacity : 1;
        }
      }
    </style>
  </defs>
  <g
     transform="translate(0,-952.36216)"
     id="layer1">
    <path
       id="dc-logo"
       d="m 10,969.36216 c 0,0 40,-7 40,31.00004 0,-36.00004 35,-31.00004 35,-31.00004 l 5,7 c 0,0 -33,-8 -33,26.00004 0,35 33,26 33,26 l -5,7 c 0,0 -35,5 -35,-31 -0.0011,37.9945 -40,31 -40,31 0,0 0.0067,-7.2198 3e-6,-8 -0.00752,-0.882 0.0069,-10.0013 0.0069,-10.0013 0,0 7.993086,1.0122 7.993086,5.0013 l 0,6 c 9.994136,0.01 25,-5.9928 25,-26 0,-19.99288 -15.006341,-26.01014 -25,-26.00004 l 0,5.99963 c 0,4.00308 -8.0001119,4.99074 -8.0001119,4.99074 l 0.00271,-9.99426 z"
    />
  </g>
</svg>
